<svg width="24" height="24" viewBox="0 0 24 24" fill="none" xmlns="http://www.w3.org/2000/svg">
<g clip-path="url(#clip0_1_504)">
<path d="M12 24C18.6274 24 24 18.6274 24 12C24 5.37258 18.6274 0 12 0C5.37258 0 0 5.37258 0 12C0 18.6274 5.37258 24 12 24Z" fill="#5000B9"/>
<path fill-rule="evenodd" clip-rule="evenodd" d="M12.275 5.84528C12.5221 6.00714 12.7859 6.39353 13.0854 7.03269C13.3633 7.62581 14.2697 10.2813 14.8962 12.338C15.0808 12.9443 15.2905 13.5524 15.3621 13.6893L15.4924 13.9382L15.4955 12.6438C15.4996 10.9448 15.6308 10.3605 16.1288 9.82452C16.4637 9.46402 16.8127 9.3329 17.3555 9.36353C17.6208 9.37856 17.8573 9.41014 17.8809 9.43383C17.9261 9.47905 18.3402 11.0108 18.3146 11.0382C18.3065 11.0469 18.1801 11.021 18.0338 10.9806C17.6357 10.8706 17.2922 11.0613 17.0661 11.5177C16.8956 11.8618 16.8898 11.9272 16.8422 14.0425C16.8033 15.7725 16.7692 16.2916 16.6741 16.5959C16.3801 17.5369 15.7202 17.5591 15.1156 16.6484C14.5374 15.7773 13.9858 14.2729 13.1829 11.3779C12.6806 9.56709 12.5364 9.13768 12.4304 9.13768C12.3508 9.13768 12.3652 9.26412 12.7713 12.1247C13.1123 14.5271 13.2292 16.2073 13.0905 16.7149C13.0472 16.8731 12.9428 17.0767 12.8582 17.1673C12.7305 17.3046 12.6554 17.3258 12.4125 17.294C11.8127 17.2151 11.2808 16.3666 10.4874 14.2226C9.69688 12.0868 9.52799 11.6583 9.41968 11.5153C9.32273 11.387 9.31559 11.396 9.31357 11.6502C9.31225 11.7999 9.39536 12.52 9.49812 13.2504C9.62475 14.1507 9.6869 14.9103 9.69107 15.6095C9.69644 16.5369 9.68153 16.6703 9.54277 16.9342C9.30524 17.386 8.96715 17.4469 8.5805 17.1074C8.26023 16.8263 7.98517 16.2378 7.46974 14.7309C7.23183 14.0354 7.00919 13.4163 6.97503 13.3553C6.85799 13.1462 6.84429 13.3695 6.93707 13.9737C7.16109 15.4337 7.26189 16.3726 7.23018 16.7028C7.18041 17.2208 7.03269 17.3164 6.28082 17.3164H5.6842V17.0318V16.7474H5.97337C6.43458 16.7474 6.53766 16.6567 6.53766 16.251C6.53766 16.0589 6.47121 15.46 6.39006 14.92C6.30884 14.38 6.23687 13.6341 6.23004 13.2626C6.21155 12.2569 6.40692 11.9233 6.8957 12.1257C7.30458 12.2951 7.67987 12.9718 8.24557 14.5598C8.45096 15.1364 8.66166 15.6644 8.71395 15.7333C8.79814 15.8442 8.80919 15.8253 8.81115 15.5668C8.81241 15.4063 8.69589 14.5422 8.5522 13.6465C8.33166 12.2715 8.29023 11.8353 8.28555 10.8445C8.27949 9.54896 8.35357 9.25553 8.70947 9.16616C9.38273 8.99722 10.0694 10.0919 11.1225 13.0136C12.0517 15.5913 12.1556 15.3531 11.5914 11.9389C11.3983 10.7699 11.2 9.55724 11.1508 9.24435C11.1017 8.9314 11.0598 8.16334 11.0576 7.53751C11.0542 6.53677 11.0708 6.36536 11.1959 6.11567C11.424 5.66037 11.8355 5.55724 12.275 5.84528Z" fill="white"/>
</g>
<defs>
<clipPath id="clip0_1_504">
<rect width="24" height="24" fill="white"/>
</clipPath>
</defs>
</svg>
