<svg width="24" height="24" viewBox="0 0 24 24" fill="none" xmlns="http://www.w3.org/2000/svg">
<g clip-path="url(#clip0_1_485)">
<path d="M12 24C18.6274 24 24 18.6274 24 12C24 5.37258 18.6274 0 12 0C5.37258 0 0 5.37258 0 12C0 18.6274 5.37258 24 12 24Z" fill="#282828"/>
<path d="M19.5857 8.117C19.4128 7.47449 18.9062 6.9679 18.2637 6.79492C17.0899 6.47369 12.3947 6.47369 12.3947 6.47369C12.3947 6.47369 7.69949 6.47369 6.5257 6.7826C5.89553 6.95559 5.37659 7.47449 5.20361 8.117C4.89471 9.29079 4.89471 11.7249 4.89471 11.7249C4.89471 11.7249 4.89471 14.1714 5.20361 15.3328C5.37659 15.9753 5.88318 16.4819 6.5257 16.6549C7.71181 16.9761 12.3947 16.9761 12.3947 16.9761C12.3947 16.9761 17.0899 16.9761 18.2637 16.6673C18.9062 16.4943 19.4128 15.9877 19.5857 15.3452C19.8947 14.1714 19.8947 11.7373 19.8947 11.7373C19.8947 11.7373 19.907 9.29079 19.5857 8.117Z" fill="white"/>
<path d="M14.8043 11.7243L10.8999 9.47552V13.9731L14.8043 11.7243Z" fill="#191919"/>
</g>
<defs>
<clipPath id="clip0_1_485">
<rect width="24" height="24" fill="white"/>
</clipPath>
</defs>
</svg>
