<svg width="24" height="24" viewBox="0 0 24 24" fill="none" xmlns="http://www.w3.org/2000/svg">
<g clip-path="url(#clip0_1_491)">
<path d="M12 24C18.6274 24 24 18.6274 24 12C24 5.37258 18.6274 0 12 0C5.37258 0 0 5.37258 0 12C0 18.6274 5.37258 24 12 24Z" fill="#F14B54"/>
<path fill-rule="evenodd" clip-rule="evenodd" d="M5.6842 12V18.3158H6.86248H8.04075V12V5.6842H6.86248H5.6842V12ZM14.0356 5.69222C12.7881 5.7753 11.734 6.23668 10.8792 7.07374C10.2108 7.72831 9.75334 8.54418 9.56532 9.41721C9.48644 9.78321 9.47115 9.92942 9.46641 10.3603C9.46168 10.7913 9.46825 10.8908 9.52256 11.2113C9.65898 12.0155 9.99239 12.7378 10.534 13.4027C10.6936 13.5986 11.0573 13.9516 11.2695 14.1166C11.5602 14.3425 11.8886 14.5444 12.2053 14.6917C13.6106 15.3453 15.2533 15.302 16.6023 14.576C17.9547 13.8481 18.8569 12.5602 19.0733 11.0486C19.1038 10.8356 19.1159 10.2357 19.0943 10.0049C19.0085 9.08526 18.6649 8.23465 18.0794 7.49254C17.9207 7.29138 17.4649 6.84517 17.2604 6.69081C16.5318 6.14073 15.7301 5.81824 14.8418 5.71786C14.6644 5.69782 14.1818 5.68247 14.0356 5.69222Z" fill="white"/>
</g>
<defs>
<clipPath id="clip0_1_491">
<rect width="24" height="24" fill="white"/>
</clipPath>
</defs>
</svg>
