<svg width="24" height="24" viewBox="0 0 24 24" fill="none" xmlns="http://www.w3.org/2000/svg">
<g clip-path="url(#clip0_1_498)">
<path d="M12 24C18.6274 24 24 18.6274 24 12C24 5.37258 18.6274 0 12 0C5.37258 0 0 5.37258 0 12C0 18.6274 5.37258 24 12 24Z" fill="#009771"/>
<path fill-rule="evenodd" clip-rule="evenodd" d="M10.6029 4.94771C9.55659 5.17629 8.62943 6.22677 8.09316 7.79126L7.90867 8.32949L7.08345 8.58276C6.62953 8.72208 6.2144 8.87878 6.16097 8.93107C6.07832 9.01179 5.60914 12.1594 4.91319 17.302C4.87592 17.5771 4.88507 17.6022 5.0348 17.6347C5.32852 17.6986 13.5207 19.1167 13.5291 19.1052C13.5629 19.0587 14.111 6.63825 14.0805 6.60989C14.0589 6.58993 13.9494 6.60326 13.8371 6.63958C13.6348 6.70501 13.6314 6.70229 13.4356 6.31402C13.1229 5.69406 12.6353 5.3218 12.1362 5.3218C12.0217 5.3218 11.8857 5.26538 11.8099 5.18642C11.5432 4.90877 11.1431 4.82962 10.6029 4.94771ZM11.3045 5.4442C11.3045 5.47668 11.2466 5.52025 11.176 5.54108C10.9499 5.60769 10.3517 6.25508 10.1492 6.6524C10.0414 6.86398 9.90042 7.21785 9.836 7.43884L9.71871 7.84059L9.19791 7.9832C8.91149 8.06164 8.63815 8.13926 8.59046 8.15574C8.47495 8.19572 8.78657 7.38838 9.10709 6.81749C9.58507 5.96602 10.3572 5.38512 11.0108 5.38512C11.1724 5.38512 11.3045 5.41172 11.3045 5.4442ZM12.6521 6.03415C12.77 6.14737 12.9286 6.36819 13.0046 6.52488L13.1429 6.80985L12.9498 6.88558C12.8436 6.9272 12.6801 6.97911 12.5865 7.0009C12.421 7.03943 12.415 7.02894 12.3701 6.62259C12.3448 6.39269 12.3057 6.11995 12.2834 6.01649C12.2284 5.76111 12.3752 5.76814 12.6521 6.03415ZM11.7741 6.17301C11.8162 6.3277 11.8505 6.62467 11.8505 6.8329V7.2116L11.1744 7.40644C10.3594 7.64139 10.3265 7.64353 10.3852 7.45886C10.4784 7.16574 10.7564 6.6457 10.9379 6.42497C11.1089 6.21689 11.5454 5.89168 11.6535 5.89168C11.6778 5.89168 11.7321 6.01826 11.7741 6.17301ZM14.3073 6.74107C14.3073 6.8408 14.1832 9.56126 14.0316 12.7865C13.88 16.0118 13.7649 18.7519 13.7757 18.8757L13.7954 19.1008L16.0435 18.6494C17.2799 18.4013 18.3023 18.1681 18.3155 18.1313C18.3379 18.069 16.7216 7.77863 16.6656 7.62692C16.6509 7.58707 16.3535 7.53894 15.9683 7.514L15.2968 7.47048L14.802 7.01511C14.3263 6.57724 14.3073 6.56669 14.3073 6.74107ZM11.5571 9.81958C11.7372 9.85551 11.9201 9.90541 11.9635 9.93042C12.0767 9.99572 11.4888 11.5668 11.3622 11.5377C11.3117 11.526 11.0872 11.473 10.8632 11.4196C10.3791 11.3045 9.848 11.3451 9.59941 11.5162C9.50499 11.5811 9.39989 11.7364 9.36572 11.8613C9.2852 12.1558 9.39964 12.3213 9.95751 12.7169C10.6974 13.2415 10.9579 13.4961 11.1765 13.9078C11.3609 14.2556 11.3892 14.3756 11.3869 14.802C11.3823 15.6749 10.983 16.3778 10.2853 16.7415C9.97027 16.9057 9.82539 16.9387 9.32322 16.961C8.46781 16.999 7.77042 16.7891 7.15444 16.3082L6.95063 16.1489L7.14844 15.5374C7.25732 15.2011 7.34638 14.9148 7.34638 14.9014C7.34638 14.888 7.48937 14.9683 7.66412 15.0799C8.04137 15.3206 8.5681 15.5163 8.8393 15.5163C9.2617 15.5163 9.58368 15.032 9.3925 14.684C9.34741 14.602 9.01078 14.2642 8.64427 13.9333C7.83686 13.2043 7.71509 12.9547 7.77446 12.1505C7.85928 11.0025 8.6713 10.1344 9.92417 9.85267C10.3994 9.74581 11.1147 9.73128 11.5571 9.81958Z" fill="white"/>
</g>
<defs>
<clipPath id="clip0_1_498">
<rect width="24" height="24" fill="white"/>
</clipPath>
</defs>
</svg>
