<svg width="24" height="24" viewBox="0 0 24 24" fill="none" xmlns="http://www.w3.org/2000/svg">
<g clip-path="url(#clip0_1_510)">
<path d="M12 24C18.6274 24 24 18.6274 24 12C24 5.37258 18.6274 0 12 0C5.37258 0 0 5.37258 0 12C0 18.6274 5.37258 24 12 24Z" fill="#635BFF"/>
<path fill-rule="evenodd" clip-rule="evenodd" d="M11.1051 9.44589C11.1051 8.90456 11.549 8.69633 12.2845 8.69633C13.3389 8.69633 14.6709 9.01559 15.7254 9.58471V6.32273C14.5738 5.86465 13.4361 5.6842 12.2845 5.6842C9.46786 5.6842 7.59473 7.15559 7.59473 9.6125C7.59473 13.4436 12.8672 12.8329 12.8672 14.4847C12.8672 15.1232 12.3122 15.3314 11.5352 15.3314C10.3836 15.3314 8.91283 14.8595 7.74738 14.2209V17.5246C9.03769 18.0798 10.342 18.3158 11.5352 18.3158C14.4211 18.3158 16.4053 16.8861 16.4053 14.4014C16.3914 10.2649 11.1051 11.0006 11.1051 9.44589Z" fill="white"/>
</g>
<defs>
<clipPath id="clip0_1_510">
<rect width="24" height="24" fill="white"/>
</clipPath>
</defs>
</svg>
